<svg xmlns="http://www.w3.org/2000/svg"
 xmlns:xlink="http://www.w3.org/1999/xlink"
 width="15px" height="18px"  viewBox="0 0 15 18">
<path fill-rule="evenodd"  fill="#eb5635"
 d="M7.1486206,16.752197 C7.2313538,16.845947 7.310608,16.905518 7.387512,16.94751 C7.387512,16.94751 7.391327,16.949463 7.391327,16.949463 C7.391327,16.949463 7.546051,16.998291 7.546051,16.998291 C7.546051,16.998291 7.7003174,16.949463 7.7003174,16.949463 C7.7003174,16.949463 7.7046204,16.94751 7.7046204,16.94751 C7.7810364,16.905518 7.860779,16.845947 7.94339,16.752197 C7.94339,16.752197 12.516968,11.690186 12.976288,7.304199 C13.004059,7.077881 13.02243,6.8483887 13.02243,6.6152344 C13.02243,3.5146484 10.552765,1.0012207 7.506592,1.0012207 C4.459961,1.0012207 1.9904175,3.5146484 1.9904175,6.6152344 C1.9904175,6.852295 2.0091553,7.0839844 2.037506,7.3134766 C2.5088806,11.697998 7.1486206,16.752197 7.1486206,16.752197 ZM7.506592,3.0041504 C9.463074,3.0041504 11.054382,4.6245117 11.054382,6.6152344 C11.054382,8.605713 9.463074,10.226074 7.506592,10.226074 C5.5506287,10.226074 3.9583435,8.605713 3.9583435,6.6152344 C3.9583435,4.6245117 5.5506287,3.0041504 7.506592,3.0041504 Z"/>
</svg>