<svg xmlns="http://www.w3.org/2000/svg"
 xmlns:xlink="http://www.w3.org/1999/xlink"
 width="17px" height="17px"  viewBox="0 0 17 17">
<path fill-rule="evenodd"  fill="#a5a5a5"
 d="M8.632385,8.222656 C8.632385,8.222656 11.696655,11.5061035 11.696655,11.5061035 C11.696655,11.5061035 11.111328,12.106934 11.111328,12.106934 C11.111328,12.106934 7.406311,8.810547 7.406311,8.810547 C7.406311,8.810547 7.338257,8.292236 7.338257,8.292236 C7.338257,8.292236 7.6029053,3.338623 7.6029053,3.338623 C7.6029053,3.338623 8.37262,3.338623 8.37262,3.338623 C8.37262,3.338623 8.632385,8.222656 8.632385,8.222656 ZM15.499878,8.249756 C15.499878,12.253662 12.253723,15.499756 8.249939,15.499756 C4.246216,15.499756 1.0,12.253662 1.0,8.249756 C1.0,4.2460938 4.246216,1.0 8.249939,1.0 C12.253723,1.0 15.499878,4.2460938 15.499878,8.249756 ZM14.291504,8.249756 C14.291504,4.913086 11.586609,2.208252 8.249939,2.208252 C4.913269,2.208252 2.208191,4.913086 2.208191,8.249756 C2.208191,11.58667 4.913269,14.291504 8.249939,14.291504 C11.586609,14.291504 14.291504,11.58667 14.291504,8.249756 Z"/>
</svg>