<svg xmlns="http://www.w3.org/2000/svg"
 xmlns:xlink="http://www.w3.org/1999/xlink"
 width="20px" height="15px"  viewBox="0 0 20 15">
<path fill-rule="evenodd"  fill="#dedede"
 d="M18.186584,1.2958527 C18.186584,1.2958527 2.5385742,1.2958527 2.5385742,1.2958527 C2.2242432,1.2958527 1.9693604,1.5503769 1.9693604,1.8644104 C1.9693604,1.8644104 1.9693604,12.918953 1.9693604,12.918953 C1.9693604,13.232986 2.2242432,13.487709 2.5385742,13.487709 C2.5385742,13.487709 18.186584,13.487709 18.186584,13.487709 C18.500916,13.487709 18.755798,13.232986 18.755798,12.918953 C18.755798,12.918953 18.755798,1.8644104 18.755798,1.8644104 C18.755798,1.5503769 18.500916,1.2958527 18.186584,1.2958527 ZM17.61737,12.350388 C17.61737,12.350388 3.107788,12.350388 3.107788,12.350388 C3.107788,12.350388 3.107788,2.4331665 3.107788,2.4331665 C3.107788,2.4331665 17.61737,2.4331665 17.61737,2.4331665 C17.61737,2.4331665 17.61737,12.350388 17.61737,12.350388 ZM4.5994873,5.1119156 C4.5994873,5.1119156 10.064026,8.475624 10.064026,8.475624 C10.155457,8.531914 10.259033,8.560059 10.362488,8.560059 C10.4661255,8.560059 10.56958,8.531914 10.661133,8.475624 C10.661133,8.475624 16.125671,5.1119156 16.125671,5.1119156 C16.393433,4.947258 16.476624,4.5968323 16.311768,4.3294373 C16.146912,4.06205 15.796082,3.9788132 15.528564,4.1436768 C15.528564,4.1436768 10.362488,7.3234253 10.362488,7.3234253 C10.362488,7.3234253 5.196594,4.1436768 5.196594,4.1436768 C4.929077,3.9790192 4.578369,4.06205 4.413391,4.3294373 C4.248535,4.5968323 4.331726,4.947258 4.5994873,5.1119156 Z"/>
</svg>